<?xml version="1.0" standalone="no"?>
<!DOCTYPE svg PUBLIC "-//W3C//DTD SVG 20010904//EN"
 "http://www.w3.org/TR/2001/REC-SVG-20010904/DTD/svg10.dtd">
<svg version="1.0" xmlns="http://www.w3.org/2000/svg"
 width="88.000000pt" height="88.000000pt" viewBox="0 0 88.000000 88.000000"
 preserveAspectRatio="xMidYMid meet">

<g transform="translate(0.000000,88.000000) scale(0.100000,-0.100000)"
fill="#000000" stroke="none">
<path d="M335 866 c-220 -55 -365 -275 -327 -496 32 -188 174 -330 362 -362
291 -50 552 211 502 502 -43 254 -290 417 -537 356z m269 -64 c91 -42 149
-100 194 -190 35 -72 37 -81 37 -172 0 -91 -2 -100 -37 -172 -45 -91 -103
-147 -196 -191 -61 -29 -76 -32 -162 -32 -86 0 -101 3 -162 32 -93 44 -151
100 -196 191 -35 72 -37 81 -37 171 0 87 3 102 32 163 40 85 97 147 172 186
78 42 122 52 213 48 61 -3 92 -11 142 -34z"/>
<path d="M220 467 l0 -153 66 -32 c36 -18 69 -30 75 -27 5 4 9 71 9 150 l0
145 -70 35 c-38 19 -72 35 -75 35 -3 0 -5 -69 -5 -153z"/>
<path d="M470 555 l-41 -66 47 -75 c54 -87 45 -90 127 43 l57 93 -70 35 c-38
19 -71 35 -74 35 -2 0 -23 -29 -46 -65z"/>
<path d="M390 444 l0 -70 56 -27 c31 -16 57 -27 59 -25 1 2 -24 46 -56 98
l-59 94 0 -70z"/>
<path d="M593 403 l-61 -100 59 -28 c32 -16 61 -26 64 -23 3 3 4 61 3 129 l-3
123 -62 -101z"/>
</g>
</svg>
