<?xml version="1.0" standalone="no"?>
<!DOCTYPE svg PUBLIC "-//W3C//DTD SVG 20010904//EN"
 "http://www.w3.org/TR/2001/REC-SVG-20010904/DTD/svg10.dtd">
<svg version="1.0" xmlns="http://www.w3.org/2000/svg"
 width="88.000000pt" height="88.000000pt" viewBox="0 0 88.000000 88.000000"
 preserveAspectRatio="xMidYMid meet">

<g transform="translate(0.000000,88.000000) scale(0.100000,-0.100000)"
fill="#000000" stroke="none">
<path d="M335 866 c-220 -55 -365 -275 -327 -496 32 -188 174 -330 362 -362
291 -50 552 211 502 502 -43 254 -290 417 -537 356z m269 -64 c91 -42 149
-100 194 -190 35 -72 37 -81 37 -172 0 -91 -2 -100 -37 -172 -45 -91 -103
-147 -196 -191 -61 -29 -76 -32 -162 -32 -86 0 -101 3 -162 32 -93 44 -151
100 -196 191 -35 72 -37 81 -37 171 0 87 3 102 32 163 40 85 97 147 172 186
78 42 122 52 213 48 61 -3 92 -11 142 -34z"/>
<path d="M390 540 c-113 -66 -206 -124 -208 -130 -4 -10 78 -50 101 -50 7 0
48 32 92 71 97 85 164 139 148 119 -6 -8 -50 -62 -97 -120 -84 -102 -86 -106
-86 -157 0 -29 4 -53 9 -53 5 0 24 18 43 39 l33 39 60 -24 c32 -13 62 -21 66
-17 10 12 70 383 64 394 -4 5 -9 9 -13 8 -4 0 -99 -54 -212 -119z"/>
</g>
</svg>
